<svg width="512" height="512" viewBox="0 0 512 512" fill="none" xmlns="http://www.w3.org/2000/svg">
<mask id="mask0_34_216" style="mask-type:alpha" maskUnits="userSpaceOnUse" x="0" y="36" width="476" height="476">
<path d="M433.432 73.2065C407.327 47.7149 373.877 34.7335 339.86 36.8921C305.843 39.0508 273.803 56.1881 250.23 84.8323L238.682 98.0537L227.134 84.8323C203.518 55.8635 171.278 38.5189 137.029 36.3571C102.78 34.1953 69.1197 47.3802 42.9533 73.2065C29.8746 86.8982 19.3259 103.547 11.9495 122.14C4.57316 140.732 0.523603 160.878 0.0474982 181.352C-0.428606 201.826 2.67871 222.198 9.18017 241.228C15.6816 260.258 25.4412 277.548 37.8644 292.044L219.305 503.13C224.186 508.81 230.804 512 237.703 512C244.603 512 251.221 508.81 256.102 503.13L437.542 292.044C450.027 277.624 459.86 260.395 466.444 241.407C473.029 222.42 476.226 202.07 475.841 181.597C475.457 161.124 471.498 140.957 464.208 122.322C456.917 103.688 446.446 86.977 433.432 73.2065Z" fill="#4FBE9F"/>
</mask>
<g mask="url(#mask0_34_216)">
<path d="M506.126 -7.44319C470.865 -42.9202 425.684 -60.9866 379.737 -57.9824C333.79 -54.9782 290.513 -31.1279 258.673 8.73647L243.075 27.1369L227.477 8.73647C195.578 -31.5797 152.031 -55.7183 105.771 -58.727C59.5103 -61.7356 14.0445 -43.3861 -21.2988 -7.44319C-38.9643 11.6116 -53.2127 34.7822 -63.176 60.6574C-73.1394 86.5325 -78.6092 114.571 -79.2522 143.064C-79.8953 171.558 -75.6982 199.91 -66.9166 226.394C-58.135 252.879 -44.9526 276.941 -28.1724 297.115L216.902 590.887C223.495 598.791 232.433 603.231 241.753 603.231C251.072 603.231 260.011 598.791 266.604 590.887L511.678 297.115C528.541 277.046 541.823 253.069 550.716 226.644C559.61 200.218 563.928 171.897 563.409 143.405C562.889 114.913 557.543 86.8455 547.695 60.9119C537.847 34.9784 523.704 11.7214 506.126 -7.44319Z" fill="#AD8DC1"/>
<path d="M360.057 137.067L399.262 183.295C399.854 183.982 400.605 184.449 401.421 184.637C402.238 184.825 403.083 184.727 403.852 184.353C404.621 183.98 405.279 183.349 405.745 182.539C406.211 181.728 406.464 180.774 406.472 179.796V36.1278H307.332V179.796C307.322 180.796 307.569 181.777 308.039 182.611C308.509 183.444 309.182 184.092 309.97 184.47C310.757 184.847 311.623 184.937 312.455 184.727C313.287 184.518 314.045 184.019 314.633 183.295L354.198 137.067C354.997 136.202 356.042 135.722 357.128 135.722C358.213 135.722 359.258 136.202 360.057 137.067Z" fill="white"/>
</g>
<mask id="mask1_34_216" style="mask-type:alpha" maskUnits="userSpaceOnUse" x="36" y="0" width="477" height="476">
<path d="M469.561 37.0788C443.456 11.5871 410.006 -1.39432 375.989 0.764337C341.972 2.92299 309.932 20.0604 286.359 48.7045L274.811 61.9259L263.263 48.7045C239.647 19.7358 207.407 2.39117 173.158 0.229349C138.909 -1.93247 105.249 11.2524 79.0822 37.0788C66.0035 50.7704 55.4548 67.4194 48.0784 86.0117C40.7021 104.604 36.6525 124.751 36.1764 145.224C35.7003 165.698 38.8076 186.07 45.3091 205.1C51.8105 224.13 61.5701 241.42 73.9933 255.916L255.434 467.003C260.315 472.682 266.933 475.872 273.832 475.872C280.732 475.872 287.35 472.682 292.231 467.003L473.671 255.916C486.155 241.496 495.989 224.267 502.573 205.28C509.157 186.292 512.355 165.942 511.97 145.469C511.586 124.996 507.627 104.829 500.337 86.1946C493.046 67.5604 482.575 50.8493 469.561 37.0788Z" fill="#4FBE9F"/>
</mask>
<g mask="url(#mask1_34_216)">
<path d="M542.255 -43.5709C506.994 -79.0479 461.813 -97.1144 415.866 -94.1102C369.919 -91.1059 326.642 -67.2557 294.802 -27.3913L279.204 -8.99088L263.606 -27.3913C231.707 -67.7074 188.16 -91.8461 141.899 -94.8547C95.6393 -97.8633 50.1734 -79.5138 14.8301 -43.5709C-2.83544 -24.5161 -17.0838 -1.34553 -27.0471 24.5296C-37.0105 50.4048 -42.4803 78.443 -43.1233 106.936C-43.7664 135.43 -39.5693 163.782 -30.7877 190.267C-22.0061 216.751 -8.82373 240.813 7.95647 260.987L253.031 554.759C259.624 562.663 268.562 567.103 277.882 567.103C287.201 567.103 296.14 562.663 302.733 554.759L547.807 260.987C564.669 240.919 577.952 216.942 586.845 190.516C595.739 164.091 600.057 135.77 599.538 107.277C599.018 78.7851 593.672 50.7177 583.824 24.7842C573.976 -1.14932 559.833 -24.4064 542.255 -43.5709Z" fill="#E7C1FE"/>
<path d="M396.185 100.939L435.39 147.167C435.982 147.854 436.733 148.321 437.549 148.509C438.365 148.697 439.211 148.599 439.98 148.226C440.748 147.853 441.407 147.221 441.873 146.411C442.339 145.6 442.592 144.646 442.6 143.668V0H343.46V143.668C343.45 144.669 343.696 145.649 344.167 146.483C344.637 147.317 345.31 147.964 346.098 148.342C346.885 148.719 347.751 148.809 348.583 148.6C349.415 148.39 350.173 147.891 350.761 147.167L390.326 100.939C391.125 100.074 392.17 99.5947 393.255 99.5947C394.341 99.5947 395.386 100.074 396.185 100.939Z" fill="white"/>
</g>
</svg>
