<svg width="145" height="29" viewBox="0 0 145 29" fill="none" xmlns="http://www.w3.org/2000/svg">
<mask id="mask0_42_589" style="mask-type:alpha" maskUnits="userSpaceOnUse" x="0" y="1" width="32" height="27">
<path d="M28.7826 4.00333C27.049 2.60926 24.8278 1.89933 22.5688 2.01739C20.3099 2.13544 18.1822 3.07264 16.6168 4.63911L15.85 5.36216L15.0831 4.63911C13.5148 3.05489 11.3739 2.10635 9.09958 1.98813C6.82525 1.8699 4.58998 2.59095 2.85237 4.00333C1.98386 4.75209 1.28336 5.66258 0.793523 6.67935C0.303687 7.69612 0.0347705 8.79789 0.00315418 9.91754C-0.0284621 11.0372 0.177883 12.1513 0.609621 13.192C1.04136 14.2327 1.68945 15.1782 2.51443 15.971L14.5632 27.5148C14.8874 27.8254 15.3268 27.9999 15.785 27.9999C16.2432 27.9999 16.6826 27.8254 17.0068 27.5148L29.0556 15.971C29.8846 15.1824 30.5376 14.2402 30.9748 13.2018C31.4121 12.1634 31.6244 11.0505 31.5988 9.93094C31.5733 8.81133 31.3104 7.70842 30.8263 6.68936C30.3421 5.67029 29.6468 4.7564 28.7826 4.00333Z" fill="#4FBE9F"/>
</mask>
<g mask="url(#mask0_42_589)">
<path d="M33.6099 -0.407212C31.2684 -2.34736 28.2681 -3.33537 25.2169 -3.17107C22.1657 -3.00678 19.2918 -1.70247 17.1775 0.477614L16.1417 1.48389L15.1058 0.477614C12.9875 -1.72717 10.0958 -3.04726 7.0238 -3.21179C3.95183 -3.37633 0.932611 -2.37284 -1.4144 -0.407212C-2.58751 0.634849 -3.53369 1.90199 -4.19531 3.31704C-4.85694 4.73209 -5.22017 6.26542 -5.26288 7.82366C-5.30558 9.38189 -5.02687 10.9324 -4.44371 12.3808C-3.86056 13.8291 -2.98517 15.145 -1.87086 16.2483L14.4036 32.314C14.8414 32.7462 15.435 32.989 16.0539 32.989C16.6728 32.989 17.2663 32.7462 17.7041 32.314L33.9786 16.2483C35.0984 15.1508 35.9804 13.8396 36.571 12.3944C37.1616 10.9493 37.4483 9.40048 37.4138 7.84231C37.3793 6.28413 37.0243 4.7492 36.3703 3.33096C35.7164 1.91272 34.7772 0.64085 33.6099 -0.407212Z" fill="#AD8DC1"/>
<path d="M23.91 7.49567L26.5135 10.0238C26.5528 10.0614 26.6027 10.0869 26.6569 10.0972C26.7111 10.1075 26.7672 10.1021 26.8183 10.0817C26.8693 10.0613 26.913 10.0268 26.944 9.98243C26.9749 9.93811 26.9917 9.88594 26.9923 9.83243V1.97559H20.4088V9.83243C20.4081 9.88715 20.4245 9.94079 20.4557 9.98637C20.4869 10.032 20.5316 10.0674 20.5839 10.088C20.6362 10.1087 20.6937 10.1136 20.7489 10.1021C20.8042 10.0907 20.8546 10.0634 20.8936 10.0238L23.521 7.49567C23.574 7.44841 23.6434 7.42217 23.7155 7.42217C23.7875 7.42217 23.857 7.44841 23.91 7.49567Z" fill="white"/>
</g>
<mask id="mask1_42_589" style="mask-type:alpha" maskUnits="userSpaceOnUse" x="2" y="0" width="32" height="27">
<path d="M31.1817 2.02775C29.4481 0.633672 27.2269 -0.0762517 24.968 0.0417997C22.709 0.159851 20.5813 1.09705 19.016 2.66353L18.2491 3.38657L17.4822 2.66353C15.914 1.0793 13.773 0.130767 11.4987 0.0125425C9.22437 -0.105682 6.98909 0.615365 5.25148 2.02775C4.38297 2.77651 3.68247 3.687 3.19263 4.70377C2.7028 5.72054 2.43388 6.8223 2.40226 7.94195C2.37065 9.06161 2.57699 10.1757 3.00873 11.2164C3.44047 12.2571 4.08857 13.2027 4.91354 13.9954L16.9623 25.5392C17.2865 25.8498 17.7259 26.0243 18.1841 26.0243C18.6423 26.0243 19.0817 25.8498 19.4059 25.5392L31.4547 13.9954C32.2837 13.2068 32.9367 12.2646 33.3739 11.2262C33.8112 10.1878 34.0235 9.07496 33.9979 7.95535C33.9724 6.83574 33.7096 5.73283 33.2254 4.71377C32.7412 3.69471 32.0459 2.78082 31.1817 2.02775Z" fill="#4FBE9F"/>
</mask>
<g mask="url(#mask1_42_589)">
<path d="M36.009 -2.3828C33.6675 -4.32294 30.6672 -5.31095 27.616 -5.14666C24.5648 -4.98237 21.691 -3.67806 19.5766 -1.49797L18.5408 -0.491701L17.505 -1.49797C15.3867 -3.70276 12.4949 -5.02284 9.4229 -5.18738C6.35094 -5.35191 3.33172 -4.34842 0.984707 -2.3828C-0.188398 -1.34074 -1.13458 -0.0735955 -1.7962 1.34145C-2.45783 2.7565 -2.82106 4.28984 -2.86377 5.84807C-2.90647 7.40631 -2.62776 8.95682 -2.0446 10.4052C-1.46145 11.8536 -0.586057 13.1694 0.528252 14.2727L16.8027 30.3384C17.2405 30.7706 17.8341 31.0134 18.453 31.0134C19.0719 31.0134 19.6654 30.7706 20.1032 30.3384L36.3777 14.2727C37.4975 13.1752 38.3795 11.864 38.9701 10.4188C39.5607 8.9737 39.8474 7.42489 39.8129 5.86672C39.7785 4.30855 39.4234 2.77361 38.7695 1.35537C38.1155 -0.0628653 37.1763 -1.33474 36.009 -2.3828Z" fill="#E7C1FE"/>
<path d="M26.3091 5.52009L28.9126 8.04819C28.9519 8.08577 29.0018 8.11129 29.056 8.12159C29.1102 8.13188 29.1663 8.12649 29.2174 8.10609C29.2684 8.08568 29.3122 8.05117 29.3431 8.00684C29.374 7.96252 29.3908 7.91035 29.3914 7.85685V0H22.8079V7.85685C22.8072 7.91156 22.8236 7.9652 22.8548 8.01079C22.886 8.05638 22.9307 8.09179 22.983 8.11244C23.0353 8.13308 23.0928 8.138 23.1481 8.12654C23.2033 8.11508 23.2537 8.08778 23.2927 8.04819L25.9201 5.52009C25.9731 5.47282 26.0425 5.44658 26.1146 5.44658C26.1867 5.44658 26.2561 5.47282 26.3091 5.52009Z" fill="white"/>
</g>
<path d="M41.0919 20.8957C39.6678 20.8957 38.4241 20.5728 37.3608 19.9272C36.2975 19.262 35.4715 18.362 34.8829 17.2272C34.2943 16.0728 34 14.7522 34 13.2652C34 11.7978 34.2848 10.487 34.8544 9.33261C35.4431 8.17826 36.269 7.27826 37.3323 6.63261C38.3957 5.96739 39.6488 5.63478 41.0919 5.63478C42.8008 5.63478 44.2439 6.075 45.4211 6.95543C46.6173 7.83587 47.4243 9.13696 47.842 10.8587H43.9401C43.7692 10.2913 43.4369 9.81196 42.9432 9.42065C42.4685 9.00978 41.8419 8.80435 41.0634 8.80435C40.2849 8.80435 39.6488 9.00978 39.1552 9.42065C38.6615 9.83152 38.2912 10.3793 38.0444 11.0641C37.8165 11.7293 37.7026 12.463 37.7026 13.2652C37.7026 14.0674 37.8165 14.8109 38.0444 15.4957C38.2912 16.1609 38.6615 16.6989 39.1552 17.1098C39.6488 17.5011 40.2849 17.6967 41.0634 17.6967C41.804 17.6967 42.4116 17.5304 42.8863 17.1978C43.3609 16.8457 43.7122 16.337 43.9401 15.6717H47.842C47.5952 16.7674 47.149 17.7065 46.5034 18.4891C45.8768 19.2717 45.0983 19.8685 44.1679 20.2793C43.2565 20.6902 42.2312 20.8957 41.0919 20.8957Z" fill="black"/>
<path d="M49.9481 20.5435V0H53.5653V7.68913C54.059 7.00435 54.714 6.49565 55.5305 6.16304C56.366 5.81087 57.2014 5.63478 58.0369 5.63478C59.6698 5.63478 61.0085 6.18261 62.0528 7.27826C63.0971 8.35435 63.6193 9.91957 63.6193 11.9739V20.5435H60.0021V12.4728C60.0021 11.3772 59.7268 10.4967 59.1762 9.83152C58.6445 9.14674 57.8565 8.80435 56.8122 8.80435C55.7679 8.80435 54.9609 9.14674 54.3913 9.83152C53.8406 10.4967 53.5653 11.3772 53.5653 12.4728V20.5435H49.9481Z" fill="black"/>
<path d="M70.2704 20.8957C69.4349 20.8957 68.6564 20.7196 67.9349 20.3674C67.2134 20.0152 66.6248 19.5163 66.1691 18.8707C65.7323 18.2054 65.514 17.4228 65.514 16.5228C65.514 15.4467 65.7703 14.5663 66.283 13.8815C66.7957 13.1967 67.4982 12.688 68.3906 12.3554C69.302 12.0228 70.3179 11.8565 71.4381 11.8565H74.799C74.799 11.1913 74.6945 10.6337 74.4857 10.1837C74.2958 9.7337 74.0015 9.3913 73.6027 9.15652C73.223 8.90217 72.7483 8.775 72.1787 8.775C71.5141 8.775 70.916 8.93152 70.3843 9.24457C69.8717 9.53804 69.5584 10.037 69.4444 10.7413H65.7988C65.8937 9.68478 66.245 8.775 66.8526 8.01196C67.4602 7.24891 68.2387 6.66196 69.1881 6.25109C70.1375 5.84022 71.1533 5.63478 72.2356 5.63478C73.5648 5.63478 74.685 5.88913 75.5965 6.39783C76.5269 6.90652 77.2389 7.63043 77.7326 8.56957C78.2263 9.48913 78.4731 10.5848 78.4731 11.8565V16.288C78.5111 16.7185 78.663 17.012 78.9288 17.1685C79.1946 17.325 79.5459 17.4033 79.9826 17.4033V20.5435C79.0902 20.5435 78.3402 20.4554 77.7326 20.2793C77.144 20.1033 76.6598 19.8489 76.28 19.5163C75.9003 19.1641 75.5775 18.7239 75.3116 18.1957C74.8749 18.9587 74.1914 19.6043 73.261 20.1326C72.3496 20.6413 71.3527 20.8957 70.2704 20.8957ZM71.3242 17.8728C71.9508 17.8728 72.5205 17.7261 73.0331 17.4326C73.5648 17.1391 73.992 16.7283 74.3148 16.2C74.6376 15.6717 74.799 15.0652 74.799 14.3804V14.263H71.666C71.2483 14.263 70.8495 14.3315 70.4698 14.4685C70.09 14.5859 69.7862 14.7815 69.5584 15.0554C69.3305 15.3098 69.2166 15.662 69.2166 16.112C69.2166 16.7185 69.416 17.1685 69.8147 17.462C70.2324 17.7359 70.7356 17.8728 71.3242 17.8728Z" fill="black"/>
<path d="M81.7396 27V5.98696H85.3567V8.01196C85.9074 7.22935 86.5909 6.64239 87.4074 6.25109C88.2429 5.84022 89.1448 5.63478 90.1132 5.63478C91.4803 5.63478 92.648 5.97717 93.6164 6.66196C94.6038 7.34674 95.3538 8.2663 95.8664 9.42065C96.3981 10.5554 96.6639 11.8174 96.6639 13.2065C96.6639 14.5957 96.3981 15.8772 95.8664 17.0511C95.3348 18.225 94.5753 19.1641 93.5879 19.8685C92.6195 20.5533 91.4613 20.8957 90.1132 20.8957C88.9169 20.8957 87.9201 20.6413 87.1226 20.1326C86.3441 19.6239 85.765 19.0957 85.3852 18.5478V27H81.7396ZM89.1448 17.6087C89.9043 17.6087 90.5689 17.413 91.1385 17.0217C91.7081 16.6109 92.1544 16.0728 92.4771 15.4076C92.7999 14.7424 92.9613 14.0087 92.9613 13.2065C92.9613 12.287 92.7809 11.5141 92.4202 10.888C92.0784 10.2424 91.6132 9.75326 91.0246 9.42065C90.4549 9.08804 89.8284 8.92174 89.1448 8.92174C88.4233 8.92174 87.7777 9.10761 87.208 9.47935C86.6384 9.85109 86.1827 10.3696 85.8409 11.0348C85.5181 11.6804 85.3567 12.4239 85.3567 13.2652C85.3567 14.0674 85.5181 14.8011 85.8409 15.4663C86.1637 16.1315 86.6099 16.6598 87.1796 17.0511C87.7492 17.4228 88.4043 17.6087 89.1448 17.6087Z" fill="black"/>
<path d="M103.759 20.5435C102.24 20.5435 101.092 20.162 100.313 19.3989C99.5536 18.6359 99.1739 17.4913 99.1739 15.9652V9.12717H97.351V5.98696H99.1739V2.43587H102.82V5.98696H106.038V9.12717H102.82V15.9946C102.82 16.5424 102.962 16.9141 103.247 17.1098C103.532 17.3054 103.902 17.4033 104.358 17.4033H106.038V20.5435H103.759Z" fill="black"/>
<path d="M114.579 20.8957C113.098 20.8957 111.817 20.563 110.734 19.8978C109.671 19.2326 108.845 18.3228 108.256 17.1685C107.668 16.0141 107.373 14.713 107.373 13.2652C107.373 11.7196 107.677 10.3793 108.285 9.24457C108.892 8.10978 109.737 7.22935 110.82 6.60326C111.902 5.95761 113.155 5.63478 114.579 5.63478C115.984 5.63478 117.209 5.94783 118.253 6.57391C119.317 7.2 120.143 8.06087 120.731 9.15652C121.339 10.2522 121.643 11.5141 121.643 12.9424C121.643 13.1967 121.633 13.4511 121.614 13.7054C121.595 13.9402 121.567 14.1652 121.529 14.3804H111.048C111.105 15.0652 111.275 15.6717 111.56 16.2C111.864 16.7087 112.263 17.1098 112.756 17.4033C113.269 17.6772 113.848 17.8141 114.494 17.8141C115.158 17.8141 115.728 17.6674 116.203 17.3739C116.696 17.0804 117.086 16.6304 117.37 16.0239H121.272C121.007 16.8848 120.579 17.687 119.991 18.4304C119.402 19.1739 118.652 19.7707 117.741 20.2207C116.848 20.6707 115.795 20.8957 114.579 20.8957ZM111.076 11.8859H117.883C117.864 10.9076 117.513 10.1348 116.829 9.56739C116.165 9 115.377 8.7163 114.465 8.7163C113.687 8.7163 112.965 8.97065 112.301 9.47935C111.636 9.96848 111.228 10.7707 111.076 11.8859Z" fill="black"/>
<path d="M123.572 20.5435V5.98696H127.189V8.1587C127.683 7.33696 128.309 6.71087 129.069 6.28044C129.828 5.85 130.673 5.63478 131.604 5.63478V9.56739H130.635C129.477 9.56739 128.613 9.85109 128.044 10.4185C127.474 10.9859 127.189 11.9348 127.189 13.2652V20.5435H123.572Z" fill="black"/>
<path d="M139.361 20.8957C138.297 20.8957 137.3 20.7 136.37 20.3087C135.44 19.8978 134.671 19.3207 134.063 18.5772C133.474 17.8337 133.152 16.963 133.095 15.9652H136.74C136.835 16.5913 137.13 17.0804 137.623 17.4326C138.136 17.7848 138.706 17.9609 139.332 17.9609C139.864 17.9609 140.358 17.8435 140.813 17.6087C141.288 17.3543 141.525 16.963 141.525 16.4348C141.525 16.0239 141.354 15.7011 141.013 15.4663C140.671 15.2315 140.272 15.0457 139.816 14.9087C139.361 14.7717 138.943 14.6543 138.563 14.5565C137.614 14.3217 136.75 14.0478 135.971 13.7348C135.193 13.4022 134.576 12.9522 134.12 12.3848C133.664 11.7978 133.436 11.025 133.436 10.0663C133.436 9.12717 133.693 8.325 134.205 7.65978C134.737 6.99457 135.43 6.49565 136.285 6.16304C137.158 5.81087 138.098 5.63478 139.104 5.63478C140.68 5.63478 142.009 6.04565 143.092 6.86739C144.174 7.68913 144.763 8.90217 144.858 10.5065H141.411C141.354 9.88043 141.098 9.41087 140.642 9.09783C140.206 8.76522 139.655 8.59891 138.99 8.59891C138.459 8.59891 137.984 8.69674 137.566 8.89239C137.149 9.08804 136.94 9.45978 136.94 10.0076C136.94 10.3989 137.111 10.7217 137.452 10.9761C137.794 11.2109 138.202 11.4065 138.677 11.563C139.152 11.7 139.57 11.8174 139.93 11.9152C140.918 12.1696 141.782 12.463 142.522 12.7957C143.282 13.1283 143.88 13.5783 144.316 14.1457C144.753 14.713 144.981 15.4761 145 16.4348C145 17.3935 144.734 18.2054 144.203 18.8707C143.69 19.5359 143.006 20.0446 142.152 20.3967C141.297 20.7293 140.367 20.8957 139.361 20.8957Z" fill="black"/>
<path d="M90.3096 29C90.0421 29 89.7909 28.939 89.5562 28.8169C89.3262 28.6901 89.1408 28.5164 89 28.2958L89.2183 28.0563C89.3544 28.2582 89.514 28.4131 89.6971 28.5211C89.8848 28.6244 90.089 28.6761 90.3096 28.6761C90.9621 28.6761 91.2883 28.2887 91.2883 27.5141V24.3592H89.4718V24.0352H91.6474V27.5141C91.6474 28.007 91.5348 28.3779 91.3095 28.6268C91.0842 28.8756 90.7509 29 90.3096 29Z" fill="black"/>
<path d="M95.6975 29C95.3314 29 94.9911 28.939 94.6766 28.8169C94.3668 28.6901 94.0945 28.5141 93.8598 28.2887C93.6298 28.0587 93.4514 27.7934 93.3247 27.493C93.198 27.1878 93.1346 26.8568 93.1346 26.5C93.1346 26.1432 93.198 25.8146 93.3247 25.5141C93.4514 25.2089 93.6298 24.9437 93.8598 24.7183C94.0945 24.4883 94.3668 24.3122 94.6766 24.1901C94.9911 24.0634 95.3314 24 95.6975 24C96.0637 24 96.4017 24.0634 96.7115 24.1901C97.026 24.3122 97.2982 24.4859 97.5282 24.7113C97.7582 24.9366 97.9366 25.2019 98.0634 25.507C98.1948 25.8075 98.2605 26.1385 98.2605 26.5C98.2605 26.8615 98.1948 27.1948 98.0634 27.5C97.9366 27.8005 97.7582 28.0634 97.5282 28.2887C97.2982 28.5141 97.026 28.6901 96.7115 28.8169C96.4017 28.939 96.0637 29 95.6975 29ZM95.6975 28.669C96.0121 28.669 96.3031 28.615 96.5706 28.507C96.8382 28.3991 97.0706 28.2465 97.2677 28.0493C97.4649 27.8521 97.6174 27.6221 97.7254 27.3592C97.838 27.0962 97.8944 26.8099 97.8944 26.5C97.8944 26.1854 97.838 25.8991 97.7254 25.6408C97.6174 25.3779 97.4649 25.1479 97.2677 24.9507C97.0706 24.7535 96.8382 24.6009 96.5706 24.493C96.3031 24.385 96.0121 24.331 95.6975 24.331C95.383 24.331 95.092 24.385 94.8245 24.493C94.5569 24.6009 94.3222 24.7535 94.1203 24.9507C93.9232 25.1479 93.7683 25.3779 93.6556 25.6408C93.5477 25.8991 93.4937 26.1854 93.4937 26.5C93.4937 26.8099 93.5477 27.0962 93.6556 27.3592C93.7683 27.6221 93.9232 27.8521 94.1203 28.0493C94.3222 28.2465 94.5569 28.3991 94.8245 28.507C95.092 28.615 95.383 28.669 95.6975 28.669Z" fill="black"/>
<path d="M101.717 29C101.107 29 100.626 28.8216 100.273 28.4648C99.9214 28.108 99.7454 27.5775 99.7454 26.8732V24.0352H100.104V26.8592C100.104 27.4742 100.245 27.9296 100.527 28.2254C100.809 28.5211 101.208 28.669 101.724 28.669C102.236 28.669 102.632 28.5211 102.914 28.2254C103.196 27.9296 103.336 27.4742 103.336 26.8592V24.0352H103.695V26.8732C103.695 27.5775 103.519 28.108 103.167 28.4648C102.815 28.8216 102.332 29 101.717 29Z" fill="black"/>
<path d="M105.653 28.9648V24.0352H107.42C108.04 24.0352 108.525 24.1808 108.877 24.4718C109.23 24.7629 109.406 25.1714 109.406 25.6972C109.406 26.0399 109.326 26.3357 109.166 26.5845C109.007 26.8286 108.779 27.0188 108.483 27.1549C108.187 27.2864 107.833 27.3521 107.42 27.3521H105.85L106.012 27.1831V28.9648H105.653ZM109.075 28.9648L107.793 27.1761H108.202L109.483 28.9648H109.075ZM106.012 27.2042L105.85 27.0352H107.42C107.95 27.0352 108.352 26.9178 108.624 26.6831C108.901 26.4484 109.039 26.1197 109.039 25.6972C109.039 25.27 108.901 24.9413 108.624 24.7113C108.352 24.4765 107.95 24.3592 107.42 24.3592H105.85L106.012 24.1831V27.2042Z" fill="black"/>
<path d="M111.002 28.9648V24.0352H111.305L114.818 28.5211H114.656V24.0352H115.015V28.9648H114.72L111.199 24.4789H111.361V28.9648H111.002Z" fill="black"/>
<path d="M116.194 28.9648L118.462 24.0352H118.821L121.088 28.9648H120.701L118.56 24.2606H118.715L116.582 28.9648H116.194ZM117.025 27.5775L117.145 27.2746H120.095L120.215 27.5775H117.025Z" fill="black"/>
<path d="M122.264 28.9648V24.0352H122.623V28.6408H125.461V28.9648H122.264Z" fill="black"/>
<path d="M127.931 28.9648L130.198 24.0352H130.557L132.825 28.9648H132.437L130.297 24.2606H130.452L128.318 28.9648H127.931ZM128.762 27.5775L128.882 27.2746H131.832L131.951 27.5775H128.762Z" fill="black"/>
<path d="M134.001 28.9648V24.0352H135.768C136.181 24.0352 136.536 24.1009 136.831 24.2324C137.127 24.3638 137.355 24.554 137.514 24.8028C137.674 25.0469 137.754 25.3451 137.754 25.6972C137.754 26.0399 137.674 26.3357 137.514 26.5845C137.355 26.8333 137.127 27.0235 136.831 27.1549C136.536 27.2864 136.181 27.3521 135.768 27.3521H134.198L134.36 27.1831V28.9648H134.001ZM134.36 27.2042L134.198 27.0282H135.768C136.299 27.0282 136.7 26.9131 136.972 26.6831C137.249 26.4484 137.388 26.1197 137.388 25.6972C137.388 25.27 137.249 24.9413 136.972 24.7113C136.7 24.4765 136.299 24.3592 135.768 24.3592H134.198L134.36 24.1831V27.2042Z" fill="black"/>
<path d="M139.247 28.9648V24.0352H141.014C141.427 24.0352 141.782 24.1009 142.078 24.2324C142.373 24.3638 142.601 24.554 142.761 24.8028C142.92 25.0469 143 25.3451 143 25.6972C143 26.0399 142.92 26.3357 142.761 26.5845C142.601 26.8333 142.373 27.0235 142.078 27.1549C141.782 27.2864 141.427 27.3521 141.014 27.3521H139.444L139.606 27.1831V28.9648H139.247ZM139.606 27.2042L139.444 27.0282H141.014C141.545 27.0282 141.946 26.9131 142.218 26.6831C142.495 26.4484 142.634 26.1197 142.634 25.6972C142.634 25.27 142.495 24.9413 142.218 24.7113C141.946 24.4765 141.545 24.3592 141.014 24.3592H139.444L139.606 24.1831V27.2042Z" fill="black"/>
</svg>
